<svg width="69" height="64" viewBox="0 0 69 64" fill="none" xmlns="http://www.w3.org/2000/svg">
<g clip-path="url(#clip0_5_281)">
<path d="M23.4297 63.2501C29.7307 63.2501 34.8446 58.5834 34.8446 52.8334V42.4167H23.4297C17.1287 42.4167 12.0148 47.0834 12.0148 52.8334C12.0148 58.5834 17.1287 63.2501 23.4297 63.2501Z" fill="#0ACF83"/>
<path d="M12.0148 31.9999C12.0148 26.2499 17.1287 21.5833 23.4297 21.5833H34.8446V42.4166H23.4297C17.1287 42.4166 12.0148 37.7499 12.0148 31.9999Z" fill="#A259FF"/>
<path d="M12.0148 11.1667C12.0148 5.41667 17.1287 0.75 23.4297 0.75H34.8446V21.5833H23.4297C17.1287 21.5833 12.0148 16.9167 12.0148 11.1667Z" fill="#F24E1E"/>
<path d="M34.8446 0.75H46.2595C52.5605 0.75 57.6743 5.41667 57.6743 11.1667C57.6743 16.9167 52.5605 21.5833 46.2595 21.5833H34.8446V0.75Z" fill="#FF7262"/>
<path d="M57.6743 31.9999C57.6743 37.7499 52.5605 42.4166 46.2595 42.4166C39.9585 42.4166 34.8446 37.7499 34.8446 31.9999C34.8446 26.2499 39.9585 21.5833 46.2595 21.5833C52.5605 21.5833 57.6743 26.2499 57.6743 31.9999Z" fill="#1ABCFE"/>
</g>
<defs>
<clipPath id="clip0_5_281">
<rect width="68.4892" height="62.5" fill="white" transform="translate(0.510803 0.75)"/>
</clipPath>
</defs>
</svg>
