<svg width="69" height="64" viewBox="0 0 69 64" fill="none" xmlns="http://www.w3.org/2000/svg">
<g clip-path="url(#clip0_6_53)">
<path d="M9.55224 51.1979L9.96686 50.6681L29.5804 16.7066L29.6219 16.3471L20.9758 1.52689C20.2514 0.28543 18.2121 0.599314 17.9744 1.98903L9.55224 51.1979Z" fill="#FFC24A"/>
<path d="M9.7968 50.7939L10.1104 50.2358L29.5185 16.6302L20.8941 1.74968C20.1773 0.521229 18.3571 0.834386 18.1219 2.20954L9.7968 50.7939Z" fill="#FFA712"/>
<path d="M35.9249 27.5574L42.3626 21.5408L35.9231 10.3227C35.3118 9.26083 33.605 9.25776 33.0002 10.3227L29.5598 16.3103V16.8203L35.9249 27.5574Z" fill="#F4BD62"/>
<path d="M35.8101 27.3065L42.0687 21.4572L35.8101 10.582C35.2158 9.54964 33.772 9.44148 33.184 10.4768L29.7254 16.5572L29.622 16.868L35.8101 27.3065Z" fill="#FFA50E"/>
<path d="M9.55224 51.1979L9.74018 51.0255L10.423 50.7722L35.5205 27.9546L35.8384 27.1647L29.5777 16.2776L9.55224 51.1979Z" fill="#F6820C"/>
<path d="M36.7288 62.7055L59.4425 51.1456L52.9562 14.6919C52.7533 13.5513 51.22 13.1004 50.3254 13.9182L9.55224 51.198L32.1357 62.7044C33.5629 63.4316 35.3012 63.432 36.7288 62.7055Z" fill="#FDE068"/>
<path d="M59.2389 51.0484L52.8019 14.8715C52.6006 13.7396 51.3255 13.2712 50.4377 14.0828L9.80405 51.127L32.1395 62.5196C33.5559 63.2412 35.2809 63.2416 36.6977 62.5206L59.2389 51.0484Z" fill="#FCCA3F"/>
<path d="M36.7288 62.3649C35.3012 63.0914 33.5629 63.0911 32.1357 62.3639L9.73414 51.0227L9.55224 51.198L32.1357 62.7044C33.5629 63.4316 35.3012 63.432 36.7288 62.7054L59.4425 51.1455L59.3869 50.8333L36.7288 62.3649Z" fill="#EEAB37"/>
</g>
<defs>
<clipPath id="clip0_6_53">
<rect width="68.4892" height="62.5" fill="white" transform="translate(0.188477 0.75)"/>
</clipPath>
</defs>
</svg>
