<svg width="30" height="30" viewBox="0 0 30 30" fill="none" xmlns="http://www.w3.org/2000/svg">
<path fill-rule="evenodd" clip-rule="evenodd" d="M0 15C0 14.4318 0.197522 13.8868 0.549114 13.485C0.900705 13.0833 1.37757 12.8575 1.87479 12.8575H23.5961L15.5458 3.66205C15.1937 3.25975 14.996 2.71411 14.996 2.14518C14.996 1.57624 15.1937 1.03061 15.5458 0.628308C15.8978 0.22601 16.3753 0 16.8731 0C17.371 0 17.8484 0.22601 18.2005 0.628308L29.4492 13.4831C29.6238 13.6821 29.7623 13.9186 29.8568 14.1789C29.9513 14.4392 30 14.7182 30 15C30 15.2818 29.9513 15.5608 29.8568 15.8211C29.7623 16.0814 29.6238 16.3179 29.4492 16.5169L18.2005 29.3717C17.8484 29.774 17.371 30 16.8731 30C16.3753 30 15.8978 29.774 15.5458 29.3717C15.1937 28.9694 14.996 28.4238 14.996 27.8548C14.996 27.2859 15.1937 26.7403 15.5458 26.338L23.5961 17.1425H1.87479C1.37757 17.1425 0.900705 16.9167 0.549114 16.515C0.197522 16.1132 0 15.5682 0 15Z" fill="#FBEAEB"/>
</svg>
