<svg width="50" height="50" viewBox="0 0 50 50" fill="none" xmlns="http://www.w3.org/2000/svg">
<path d="M25 0.617188C11.1875 0.617188 0 11.8484 0 25.7148C0 36.8206 7.15625 46.2008 17.0938 49.5263C18.3438 49.7459 18.8125 48.9929 18.8125 48.3341C18.8125 47.738 18.7812 45.7616 18.7812 43.6597C12.5 44.8204 10.875 42.1224 10.375 40.7107C10.0938 39.9891 8.875 37.7617 7.8125 37.1657C6.9375 36.6951 5.6875 35.5343 7.78125 35.5029C9.75 35.4716 11.1562 37.3225 11.625 38.0754C13.875 41.8715 17.4688 40.8048 18.9062 40.146C19.125 38.5147 19.7812 37.4166 20.5 36.7892C14.9375 36.1617 9.125 33.9971 9.125 24.3972C9.125 21.6678 10.0938 19.4091 11.6875 17.6522C11.4375 17.0248 10.5625 14.4523 11.9375 11.0013C11.9375 11.0013 14.0312 10.3425 18.8125 13.5739C20.8125 13.0092 22.9375 12.7268 25.0625 12.7268C27.1875 12.7268 29.3125 13.0092 31.3125 13.5739C36.0938 10.3112 38.1875 11.0013 38.1875 11.0013C39.5625 14.4523 38.6875 17.0248 38.4375 17.6522C40.0312 19.4091 41 21.6365 41 24.3972C41 34.0284 35.1562 36.1617 29.5938 36.7892C30.5 37.5735 31.2812 39.0794 31.2812 41.4323C31.2812 44.7891 31.25 47.4871 31.25 48.3341C31.25 48.9929 31.7188 49.7772 32.9688 49.5263C37.9325 47.8455 42.2459 44.6437 45.3013 40.372C48.3567 36.1002 50.0001 30.9738 50 25.7148C50 11.8484 38.8125 0.617188 25 0.617188Z" fill="#FBEAEB"/>
</svg>
