<svg width="50" height="49" viewBox="0 0 50 49" fill="none" xmlns="http://www.w3.org/2000/svg">
<path d="M25 0.00390625C11.1875 0.00390625 0 11.2351 0 25.1016C0 36.2073 7.15625 45.5875 17.0938 48.913C18.3438 49.1326 18.8125 48.3796 18.8125 47.7208C18.8125 47.1248 18.7812 45.1483 18.7812 43.0464C12.5 44.2072 10.875 41.5092 10.375 40.0974C10.0938 39.3759 8.875 37.1484 7.8125 36.5524C6.9375 36.0818 5.6875 34.921 7.78125 34.8897C9.75 34.8583 11.1562 36.7092 11.625 37.4622C13.875 41.2582 17.4688 40.1915 18.9062 39.5327C19.125 37.9014 19.7812 36.8033 20.5 36.1759C14.9375 35.5485 9.125 33.3838 9.125 23.7839C9.125 21.0546 10.0938 18.7958 11.6875 17.0389C11.4375 16.4115 10.5625 13.839 11.9375 10.3881C11.9375 10.3881 14.0312 9.72925 18.8125 12.9606C20.8125 12.3959 22.9375 12.1135 25.0625 12.1135C27.1875 12.1135 29.3125 12.3959 31.3125 12.9606C36.0938 9.69788 38.1875 10.3881 38.1875 10.3881C39.5625 13.839 38.6875 16.4115 38.4375 17.0389C40.0312 18.7958 41 21.0232 41 23.7839C41 33.4152 35.1562 35.5485 29.5938 36.1759C30.5 36.9602 31.2812 38.4661 31.2812 40.819C31.2812 44.1758 31.25 46.8738 31.25 47.7208C31.25 48.3796 31.7188 49.1639 32.9688 48.913C37.9325 47.2322 42.2459 44.0304 45.3013 39.7587C48.3567 35.4869 50.0001 30.3605 50 25.1016C50 11.2351 38.8125 0.00390625 25 0.00390625Z" fill="#2E3C7E"/>
</svg>
