<svg width="50" height="51" viewBox="0 0 50 51" fill="none" xmlns="http://www.w3.org/2000/svg">
<path d="M25 0.621094C18.2156 0.621094 17.3625 0.652466 14.6969 0.77168C12.0312 0.897168 10.2156 1.31755 8.625 1.93872C6.95576 2.56718 5.44419 3.55563 4.19688 4.83436C2.92312 6.08655 1.93852 7.60403 1.3125 9.27979C0.69375 10.8735 0.271875 12.6993 0.15 15.366C0.03125 18.0483 0 18.9016 0 25.7219C0 32.5359 0.03125 33.3892 0.15 36.0653C0.275 38.7382 0.69375 40.5609 1.3125 42.1577C1.95312 43.8079 2.80625 45.2071 4.19688 46.6031C5.58438 47.9992 6.97813 48.8588 8.62187 49.4988C10.2156 50.1199 12.0281 50.5435 14.6906 50.6658C17.3594 50.785 18.2094 50.8164 25 50.8164C31.7906 50.8164 32.6375 50.785 35.3063 50.6658C37.9656 50.5403 39.7875 50.1199 41.3781 49.4988C43.0462 48.8699 44.5567 47.8815 45.8031 46.6031C47.1937 45.2071 48.0469 43.8079 48.6875 42.1577C49.3031 40.5609 49.725 38.7382 49.85 36.0653C49.9688 33.3892 50 32.5359 50 25.7188C50 18.9016 49.9688 18.0483 49.85 15.3691C49.725 12.6993 49.3031 10.8735 48.6875 9.27979C48.0615 7.60403 47.0769 6.08655 45.8031 4.83436C44.5558 3.55563 43.0442 2.56718 41.375 1.93872C39.7812 1.31755 37.9625 0.894031 35.3031 0.77168C32.6344 0.652466 31.7875 0.621094 24.9937 0.621094H25ZM22.7594 5.14495H25.0031C31.6781 5.14495 32.4688 5.16691 35.1031 5.28926C37.5406 5.39906 38.8656 5.81003 39.7469 6.15199C40.9125 6.60688 41.7469 7.15276 42.6219 8.03118C43.4969 8.90959 44.0375 9.74409 44.4906 10.9174C44.8344 11.799 45.2406 13.1291 45.35 15.5762C45.4719 18.2208 45.4969 19.0145 45.4969 25.7125C45.4969 32.4104 45.4719 33.2073 45.35 35.8519C45.2406 38.299 44.8313 39.626 44.4906 40.5107C44.087 41.599 43.4476 42.5837 42.6187 43.3938C41.7437 44.2722 40.9125 44.8149 39.7438 45.2698C38.8688 45.6149 37.5438 46.0228 35.1031 46.1357C32.4688 46.2549 31.6781 46.2831 25.0031 46.2831C18.3281 46.2831 17.5344 46.2549 14.9 46.1357C12.4625 46.0228 11.1406 45.6149 10.2594 45.2698C9.17448 44.8659 8.19249 44.2251 7.38437 43.3938C6.55398 42.5831 5.91353 41.5973 5.50938 40.5075C5.16875 39.626 4.75938 38.2958 4.65 35.8488C4.53125 33.2041 4.50625 32.4104 4.50625 25.7062C4.50625 19.002 4.53125 18.2146 4.65 15.5699C4.7625 13.1229 5.16875 11.7927 5.5125 10.908C5.96563 9.73782 6.50937 8.90018 7.38437 8.02177C8.25937 7.14335 9.09062 6.60061 10.2594 6.14572C11.1406 5.80062 12.4625 5.39279 14.9 5.27985C17.2063 5.17318 18.1 5.14181 22.7594 5.13867V5.14495ZM38.3469 9.31116C37.9529 9.31116 37.5628 9.38906 37.1988 9.54041C36.8348 9.69176 36.5041 9.91361 36.2256 10.1933C35.947 10.4729 35.726 10.8049 35.5752 11.1703C35.4245 11.5357 35.3469 11.9274 35.3469 12.3229C35.3469 12.7184 35.4245 13.11 35.5752 13.4754C35.726 13.8408 35.947 14.1728 36.2256 14.4525C36.5041 14.7321 36.8348 14.954 37.1988 15.1053C37.5628 15.2567 37.9529 15.3346 38.3469 15.3346C39.1425 15.3346 39.9056 15.0173 40.4682 14.4525C41.0308 13.8877 41.3469 13.1216 41.3469 12.3229C41.3469 11.5241 41.0308 10.7581 40.4682 10.1933C39.9056 9.62846 39.1425 9.31116 38.3469 9.31116ZM25.0031 12.8311C23.3002 12.8044 21.609 13.1181 20.0281 13.7539C18.4471 14.3897 17.0079 15.3348 15.7942 16.5343C14.5806 17.7339 13.6168 19.1638 12.9589 20.7408C12.301 22.3179 11.9622 24.0106 11.9622 25.7203C11.9622 27.4301 12.301 29.1228 12.9589 30.6998C13.6168 32.2769 14.5806 33.7068 15.7942 34.9063C17.0079 36.1058 18.4471 37.051 20.0281 37.6868C21.609 38.3225 23.3002 38.6362 25.0031 38.6095C28.3736 38.5567 31.5882 37.1756 33.9531 34.7641C36.3179 32.3526 37.6434 29.1043 37.6434 25.7203C37.6434 22.3363 36.3179 19.088 33.9531 16.6765C31.5882 14.2651 28.3736 12.8839 25.0031 12.8311ZM25.0031 17.3518C26.0976 17.3518 27.1814 17.5682 28.1926 17.9887C29.2037 18.4092 30.1225 19.0255 30.8964 19.8024C31.6703 20.5794 32.2842 21.5017 32.7031 22.5169C33.1219 23.532 33.3375 24.62 33.3375 25.7188C33.3375 26.8175 33.1219 27.9055 32.7031 28.9206C32.2842 29.9358 31.6703 30.8581 30.8964 31.6351C30.1225 32.412 29.2037 33.0283 28.1926 33.4488C27.1814 33.8693 26.0976 34.0857 25.0031 34.0857C22.7927 34.0857 20.6728 33.2042 19.1098 31.6351C17.5468 30.066 16.6688 27.9378 16.6688 25.7188C16.6688 23.4997 17.5468 21.3715 19.1098 19.8024C20.6728 18.2333 22.7927 17.3518 25.0031 17.3518Z" fill="#FBEAEB"/>
</svg>
