<svg width="50" height="51" viewBox="0 0 50 51" fill="none" xmlns="http://www.w3.org/2000/svg">
<path d="M25 0.0078125C18.2156 0.0078125 17.3625 0.0391846 14.6969 0.158398C12.0312 0.283887 10.2156 0.704272 8.625 1.32544C6.95576 1.9539 5.44419 2.94235 4.19688 4.22108C2.92312 5.47327 1.93852 6.99075 1.3125 8.6665C0.69375 10.2602 0.271875 12.0861 0.15 14.7527C0.03125 17.435 0 18.2883 0 25.1086C0 31.9226 0.03125 32.7759 0.15 35.452C0.275 38.1249 0.69375 39.9476 1.3125 41.5444C1.95312 43.1946 2.80625 44.5938 4.19688 45.9899C5.58438 47.3859 6.97813 48.2455 8.62187 48.8855C10.2156 49.5067 12.0281 49.9302 14.6906 50.0525C17.3594 50.1718 18.2094 50.2031 25 50.2031C31.7906 50.2031 32.6375 50.1718 35.3063 50.0525C37.9656 49.9271 39.7875 49.5067 41.3781 48.8855C43.0462 48.2566 44.5567 47.2682 45.8031 45.9899C47.1937 44.5938 48.0469 43.1946 48.6875 41.5444C49.3031 39.9476 49.725 38.1249 49.85 35.452C49.9688 32.7759 50 31.9226 50 25.1055C50 18.2883 49.9688 17.435 49.85 14.7558C49.725 12.0861 49.3031 10.2602 48.6875 8.6665C48.0615 6.99075 47.0769 5.47327 45.8031 4.22108C44.5558 2.94235 43.0442 1.9539 41.375 1.32544C39.7812 0.704272 37.9625 0.28075 35.3031 0.158398C32.6344 0.0391846 31.7875 0.0078125 24.9937 0.0078125H25ZM22.7594 4.53167H25.0031C31.6781 4.53167 32.4688 4.55363 35.1031 4.67598C37.5406 4.78578 38.8656 5.19675 39.7469 5.53871C40.9125 5.9936 41.7469 6.53948 42.6219 7.4179C43.4969 8.29631 44.0375 9.13081 44.4906 10.3041C44.8344 11.1857 45.2406 12.5159 45.35 14.9629C45.4719 17.6075 45.4969 18.4013 45.4969 25.0992C45.4969 31.7971 45.4719 32.594 45.35 35.2386C45.2406 37.6857 44.8313 39.0127 44.4906 39.8974C44.087 40.9857 43.4476 41.9704 42.6187 42.7805C41.7437 43.6589 40.9125 44.2016 39.7438 44.6565C38.8688 45.0016 37.5438 45.4095 35.1031 45.5224C32.4688 45.6416 31.6781 45.6699 25.0031 45.6699C18.3281 45.6699 17.5344 45.6416 14.9 45.5224C12.4625 45.4095 11.1406 45.0016 10.2594 44.6565C9.17448 44.2526 8.19249 43.6119 7.38437 42.7805C6.55398 41.9698 5.91353 40.984 5.50938 39.8943C5.16875 39.0127 4.75938 37.6825 4.65 35.2355C4.53125 32.5908 4.50625 31.7971 4.50625 25.0929C4.50625 18.3887 4.53125 17.6013 4.65 14.9566C4.7625 12.5096 5.16875 11.1794 5.5125 10.2947C5.96563 9.12454 6.50937 8.2869 7.38437 7.40848C8.25937 6.53007 9.09062 5.98733 10.2594 5.53243C11.1406 5.18734 12.4625 4.7795 14.9 4.66656C17.2063 4.5599 18.1 4.52853 22.7594 4.52539V4.53167ZM38.3469 8.69788C37.9529 8.69788 37.5628 8.77578 37.1988 8.92713C36.8348 9.07848 36.5041 9.30032 36.2256 9.57999C35.947 9.85965 35.726 10.1917 35.5752 10.5571C35.4245 10.9225 35.3469 11.3141 35.3469 11.7096C35.3469 12.1051 35.4245 12.4967 35.5752 12.8621C35.726 13.2275 35.947 13.5595 36.2256 13.8392C36.5041 14.1189 36.8348 14.3407 37.1988 14.4921C37.5628 14.6434 37.9529 14.7213 38.3469 14.7213C39.1425 14.7213 39.9056 14.404 40.4682 13.8392C41.0308 13.2744 41.3469 12.5084 41.3469 11.7096C41.3469 10.9108 41.0308 10.1448 40.4682 9.57999C39.9056 9.01518 39.1425 8.69788 38.3469 8.69788ZM25.0031 12.2178C23.3002 12.1911 21.609 12.5048 20.0281 13.1406C18.4471 13.7764 17.0079 14.7215 15.7942 15.9211C14.5806 17.1206 13.6168 18.5505 12.9589 20.1275C12.301 21.7046 11.9622 23.3973 11.9622 25.107C11.9622 26.8168 12.301 28.5095 12.9589 30.0865C13.6168 31.6636 14.5806 33.0935 15.7942 34.293C17.0079 35.4925 18.4471 36.4377 20.0281 37.0735C21.609 37.7092 23.3002 38.0229 25.0031 37.9963C28.3736 37.9435 31.5882 36.5623 33.9531 34.1508C36.3179 31.7394 37.6434 28.4911 37.6434 25.107C37.6434 21.723 36.3179 18.4747 33.9531 16.0633C31.5882 13.6518 28.3736 12.2706 25.0031 12.2178ZM25.0031 16.7385C26.0976 16.7385 27.1814 16.955 28.1926 17.3754C29.2037 17.7959 30.1225 18.4122 30.8964 19.1892C31.6703 19.9661 32.2842 20.8885 32.7031 21.9036C33.1219 22.9187 33.3375 24.0067 33.3375 25.1055C33.3375 26.2042 33.1219 27.2922 32.7031 28.3074C32.2842 29.3225 31.6703 30.2448 30.8964 31.0218C30.1225 31.7987 29.2037 32.415 28.1926 32.8355C27.1814 33.256 26.0976 33.4724 25.0031 33.4724C22.7927 33.4724 20.6728 32.5909 19.1098 31.0218C17.5468 29.4527 16.6688 27.3245 16.6688 25.1055C16.6688 22.8864 17.5468 20.7583 19.1098 19.1892C20.6728 17.6201 22.7927 16.7385 25.0031 16.7385Z" fill="#2E3C7E"/>
</svg>
