<svg width="70" height="64" viewBox="0 0 70 64" fill="none" xmlns="http://www.w3.org/2000/svg">
<g clip-path="url(#clip0_6_80)">
<path fill-rule="evenodd" clip-rule="evenodd" d="M0.627319 0.75H69.1165V63.25H0.627319V0.75Z" fill="#F7DF1E"/>
<path fill-rule="evenodd" clip-rule="evenodd" d="M18.6357 52.9796L23.8769 50.0851C24.8881 51.7211 25.8079 53.1053 28.0142 53.1053C30.1291 53.1053 31.4625 52.3503 31.4625 49.4138V29.4436H37.8988V49.4969C37.8988 55.5802 33.9912 58.3492 28.2902 58.3492C23.1414 58.3492 20.1527 55.9157 18.6356 52.9791" fill="black"/>
<path fill-rule="evenodd" clip-rule="evenodd" d="M41.3947 52.3501L46.6353 49.5812C48.0149 51.6371 49.8079 53.1474 52.9799 53.1474C55.6468 53.1474 57.3474 51.9306 57.3474 50.2524C57.3474 48.2386 55.6005 47.5253 52.658 46.351L51.0494 45.7213C46.4057 43.9176 43.3253 41.6521 43.3253 36.8693C43.3253 32.4641 47.0032 29.1077 52.7502 29.1077C56.842 29.1077 59.7843 30.4084 61.8989 33.8067L56.8876 36.7433C55.7842 34.9394 54.5892 34.2263 52.7503 34.2263C50.8654 34.2263 49.67 35.3171 49.67 36.7433C49.67 38.5054 50.8654 39.2188 53.6235 40.3097L55.2325 40.9389C60.7035 43.0787 63.7838 45.26 63.7838 50.1685C63.7838 55.455 59.2325 58.3495 53.118 58.3495C47.1414 58.3495 43.2795 55.7485 41.3948 52.3501" fill="black"/>
</g>
<defs>
<clipPath id="clip0_6_80">
<rect width="68.4892" height="62.5" fill="white" transform="translate(0.627319 0.75)"/>
</clipPath>
</defs>
</svg>
