<svg width="211" height="31" viewBox="0 0 211 31" fill="none" xmlns="http://www.w3.org/2000/svg">
<path d="M0.761367 30V0.90909H7.79262V12.5852H19.2557V0.90909H26.2727V30H19.2557V18.3097H7.79262V30H0.761367ZM58.1406 15.4545C58.1406 18.6553 57.5251 21.3684 56.294 23.5938C55.063 25.8191 53.3963 27.5095 51.294 28.6648C49.2012 29.8201 46.8527 30.3977 44.2486 30.3977C41.6349 30.3977 39.2817 29.8153 37.1889 28.6506C35.0961 27.4858 33.4342 25.7955 32.2031 23.5795C30.9815 21.3542 30.3707 18.6458 30.3707 15.4545C30.3707 12.2538 30.9815 9.54072 32.2031 7.31534C33.4342 5.08996 35.0961 3.39962 37.1889 2.24432C39.2817 1.08901 41.6349 0.511363 44.2486 0.511363C46.8527 0.511363 49.2012 1.08901 51.294 2.24432C53.3963 3.39962 55.063 5.08996 56.294 7.31534C57.5251 9.54072 58.1406 12.2538 58.1406 15.4545ZM50.9531 15.4545C50.9531 13.5606 50.6832 11.9602 50.1435 10.6534C49.6132 9.34659 48.8461 8.35701 47.8423 7.68466C46.848 7.01231 45.6501 6.67614 44.2486 6.67614C42.8565 6.67614 41.6586 7.01231 40.6548 7.68466C39.651 8.35701 38.8793 9.34659 38.3395 10.6534C37.8092 11.9602 37.544 13.5606 37.544 15.4545C37.544 17.3485 37.8092 18.9489 38.3395 20.2557C38.8793 21.5625 39.651 22.5521 40.6548 23.2244C41.6586 23.8968 42.8565 24.233 44.2486 24.233C45.6501 24.233 46.848 23.8968 47.8423 23.2244C48.8461 22.5521 49.6132 21.5625 50.1435 20.2557C50.6832 18.9489 50.9531 17.3485 50.9531 15.4545ZM74.0639 0.90909H80.9957V21.0227C80.9863 22.9072 80.5365 24.5549 79.6463 25.9659C78.7562 27.3674 77.5251 28.4564 75.9531 29.233C74.3906 30.0095 72.5819 30.3977 70.527 30.3977C68.7088 30.3977 67.0563 30.0805 65.5696 29.446C64.0923 28.8116 62.9134 27.8267 62.0327 26.4915C61.1615 25.1562 60.7306 23.447 60.7401 21.3636H67.7429C67.7713 22.1117 67.9134 22.7509 68.169 23.2812C68.4342 23.8021 68.7988 24.1951 69.2628 24.4602C69.7268 24.7254 70.2808 24.858 70.9247 24.858C71.5971 24.858 72.1652 24.7159 72.6293 24.4318C73.0933 24.1383 73.4437 23.7074 73.6804 23.1392C73.9266 22.571 74.0545 21.8655 74.0639 21.0227V0.90909ZM91.7024 30H84.1456L93.9609 0.90909H103.322L113.137 30H105.58L98.7479 8.23864H98.5206L91.7024 30ZM90.6939 18.5511H106.489V23.892H90.6939V18.5511ZM120.175 30.4119C119.153 30.4119 118.277 30.0521 117.548 29.3324C116.828 28.6127 116.473 27.7415 116.482 26.7188C116.473 25.715 116.828 24.858 117.548 24.1477C118.277 23.428 119.153 23.0682 120.175 23.0682C121.141 23.0682 121.994 23.428 122.732 24.1477C123.48 24.858 123.859 25.715 123.869 26.7188C123.859 27.4006 123.679 28.0208 123.329 28.5795C122.988 29.1383 122.538 29.5833 121.979 29.9148C121.43 30.2462 120.829 30.4119 120.175 30.4119ZM139.21 30H128.457V0.90909H139.195C142.159 0.90909 144.711 1.49148 146.852 2.65625C149.001 3.81155 150.658 5.47822 151.823 7.65625C152.988 9.82481 153.57 12.4195 153.57 15.4403C153.57 18.4706 152.988 21.0748 151.823 23.2528C150.668 25.4309 149.015 27.1023 146.866 28.267C144.716 29.4223 142.164 30 139.21 30ZM135.488 24.0057H138.94C140.568 24.0057 141.946 23.7311 143.073 23.1818C144.21 22.6231 145.067 21.7188 145.644 20.4688C146.231 19.2093 146.525 17.5331 146.525 15.4403C146.525 13.3475 146.231 11.6809 145.644 10.4403C145.057 9.19034 144.191 8.29072 143.045 7.74148C141.908 7.18276 140.507 6.90341 138.84 6.90341H135.488V24.0057ZM157.675 30V0.90909H177.96V6.61932H164.707V12.5852H176.923V18.3097H164.707V24.2898H177.96V30H157.675ZM188.968 0.90909L195.474 22.2159H195.715L202.221 0.90909H210.09L200.275 30H190.914L181.099 0.90909H188.968Z" fill="#2E3C7E"/>
</svg>
