<svg width="70" height="64" viewBox="0 0 70 64" fill="none" xmlns="http://www.w3.org/2000/svg">
<path d="M32.868 0.766819C32.7207 0.779036 32.2521 0.821796 31.8303 0.852339C22.1026 1.65256 12.9907 6.44169 7.21971 13.8025C4.00614 17.8953 1.95079 22.5378 1.17418 27.4552C0.899686 29.1717 0.866211 29.6787 0.866211 32.0061C0.866211 34.3335 0.899686 34.8405 1.17418 36.557C3.03537 48.2916 12.1874 58.1509 24.5998 61.8038C26.8225 62.4574 29.1657 62.9033 31.8303 63.1721C32.868 63.276 37.3536 63.276 38.3913 63.1721C42.9908 62.7079 46.8872 61.6694 50.7301 59.8796C51.3193 59.6047 51.4331 59.5314 51.3527 59.4703C51.2992 59.4337 48.7886 56.361 45.7759 52.647L40.2994 45.897L33.4371 36.6303C29.6611 31.5358 26.5547 27.3697 26.5279 27.3697C26.5011 27.3636 26.4743 31.4808 26.461 36.5081C26.4409 45.3106 26.4342 45.6649 26.3137 45.8726C26.1396 46.1719 26.0057 46.2941 25.7245 46.4285C25.5103 46.5262 25.3228 46.5446 24.3119 46.5446H23.1537L22.8457 46.3674C22.6448 46.2513 22.4976 46.0986 22.3971 45.9215L22.2565 45.6466L22.2699 33.3989L22.29 21.1451L22.4976 20.9068C22.6047 20.7785 22.8323 20.6136 22.993 20.5342C23.2675 20.412 23.3746 20.3998 24.5328 20.3998C25.8986 20.3998 26.1262 20.4487 26.481 20.803C26.5815 20.9007 30.2972 26.0075 34.7426 32.1588C39.188 38.3102 45.267 46.7095 48.253 50.8328L53.6759 58.328L53.9504 58.1631C56.3806 56.7215 58.9515 54.669 60.9868 52.531C65.3184 47.9923 68.1102 42.4579 69.0475 36.557C69.3219 34.8405 69.3554 34.3335 69.3554 32.0061C69.3554 29.6787 69.3219 29.1717 69.0475 27.4552C67.1863 15.7206 58.0343 5.86138 45.6219 2.20844C43.4326 1.56093 41.1028 1.11501 38.4918 0.846231C37.849 0.785145 33.4237 0.71795 32.868 0.766819ZM46.8872 19.6668C47.2086 19.8134 47.4697 20.0944 47.5634 20.3876C47.617 20.5464 47.6304 23.9428 47.617 31.5968L47.5969 42.5801L45.4746 39.6113L43.3456 36.6425V28.6586C43.3456 23.4969 43.3724 20.5953 43.4125 20.4548C43.5197 20.1127 43.754 19.8439 44.0753 19.6851C44.3498 19.5568 44.4503 19.5446 45.5014 19.5446C46.4922 19.5446 46.6663 19.5568 46.8872 19.6668Z" fill="black"/>
</svg>
