<svg width="111" height="100" viewBox="0 0 111 100" fill="none" xmlns="http://www.w3.org/2000/svg">
<g clip-path="url(#clip0_5_354)">
<path fill-rule="evenodd" clip-rule="evenodd" d="M24.3272 51.1433C24.3272 50.7364 24.0795 50.3521 23.6832 50.1487L13.1807 44.6333C13.0073 44.5429 12.8092 44.4977 12.611 44.4751H12.5119C12.3138 44.4751 12.1156 44.5429 11.9422 44.6333L1.43971 50.1487C1.04339 50.3521 0.795685 50.7364 0.795685 51.1433L0.820455 65.9715C0.820455 66.1749 0.944305 66.3784 1.14247 66.4688C1.34063 66.5818 1.58833 66.5818 1.76172 66.4688L8.00377 63.2138C8.40009 63.0104 8.64779 62.6261 8.64779 62.2192V55.2798C8.64779 54.8729 8.8955 54.4887 9.29182 54.2852L11.9422 52.8838C12.1404 52.7708 12.3633 52.7256 12.5862 52.7256C12.8092 52.7256 13.0321 52.7708 13.2055 52.8838L15.8559 54.2852C16.2522 54.4887 16.4999 54.8729 16.4999 55.2798V62.2192C16.4999 62.6261 16.7476 63.0104 17.1439 63.2138L23.386 66.4688C23.5841 66.5818 23.8318 66.5818 24.03 66.4688C24.2282 66.3784 24.352 66.1749 24.352 65.9715L24.3272 51.1433Z" fill="#333333"/>
<path fill-rule="evenodd" clip-rule="evenodd" d="M74.8085 30.7319C74.6103 30.6415 74.3626 30.6415 74.1893 30.7319C73.9911 30.8449 73.8672 31.0257 73.8672 31.2292V45.9218C73.8672 46.0574 73.7929 46.193 73.6443 46.2834C73.4957 46.3512 73.3471 46.3512 73.1985 46.2834L70.5728 44.9046C70.1765 44.7011 69.7059 44.7011 69.3096 44.9046L58.807 50.4425C58.4107 50.646 58.163 51.0303 58.163 51.4371V62.4905C58.163 62.8973 58.4107 63.2816 58.807 63.485L69.3096 69.023C69.7059 69.2265 70.1765 69.2265 70.5728 69.023L81.0753 63.485C81.4717 63.2816 81.7194 62.8973 81.7194 62.4905V34.9362C81.7194 34.5067 81.4717 34.1225 81.0753 33.919L74.8085 30.7319ZM73.8424 58.8512C73.8424 58.9642 73.7929 59.0547 73.6938 59.0999L70.1021 60.9986C70.003 61.0438 69.8792 61.0438 69.7801 60.9986L66.1884 59.0999C66.0894 59.0547 66.0398 58.9416 66.0398 58.8512V55.0538C66.0398 54.9407 66.0894 54.8503 66.1884 54.8051L69.7801 52.9064C69.8792 52.8612 70.003 52.8612 70.1021 52.9064L73.6938 54.8051C73.7929 54.8503 73.8424 54.9633 73.8424 55.0538V58.8512Z" fill="#333333"/>
<path fill-rule="evenodd" clip-rule="evenodd" d="M109.759 54.9634C110.155 54.76 110.378 54.3757 110.378 53.9689V51.279C110.378 50.8721 110.131 50.4878 109.759 50.2844L99.331 44.769C98.9347 44.5656 98.464 44.5656 98.0677 44.769L87.5652 50.307C87.1689 50.5104 86.9212 50.8947 86.9212 51.3016V62.3549C86.9212 62.7618 87.1689 63.1461 87.5652 63.3495L97.9934 68.7745C98.3897 68.9779 98.8603 68.9779 99.2319 68.7745L105.548 65.5647C105.746 65.4743 105.87 65.2708 105.87 65.0674C105.87 64.864 105.746 64.6605 105.548 64.5701L94.9962 59.0321C94.7981 58.9191 94.6742 58.7383 94.6742 58.5349V55.0764C94.6742 54.873 94.7981 54.6696 94.9962 54.5792L98.2906 52.8613C98.4888 52.7482 98.7365 52.7482 98.9347 52.8613L102.229 54.5792C102.427 54.6922 102.551 54.873 102.551 55.0764V57.7889C102.551 57.9924 102.675 58.1958 102.873 58.2862C103.071 58.3992 103.319 58.3992 103.517 58.2862L109.759 54.9634Z" fill="#333333"/>
<path fill-rule="evenodd" clip-rule="evenodd" d="M98.5383 54.4436C98.6126 54.3984 98.7117 54.3984 98.786 54.4436L100.792 55.506C100.867 55.5512 100.916 55.619 100.916 55.7094V57.8342C100.916 57.9246 100.867 57.9924 100.792 58.0376L98.786 59.1C98.7117 59.1452 98.6126 59.1452 98.5383 59.1L96.5319 58.0376C96.4576 57.9924 96.4081 57.9246 96.4081 57.8342V55.7094C96.4081 55.619 96.4576 55.5512 96.5319 55.506L98.5383 54.4436Z" fill="#539E43"/>
<path fill-rule="evenodd" clip-rule="evenodd" d="M41.8892 44.8142C41.4929 44.6108 41.0222 44.6108 40.6259 44.8142L30.1977 50.307C29.8014 50.5104 29.5785 50.8947 29.5785 51.3015V62.3097C29.5785 62.7165 29.8262 63.1008 30.1977 63.3043L40.6259 68.797C41.0222 69.0005 41.4929 69.0005 41.8892 68.797L52.3174 63.3043C52.7137 63.1008 52.9366 62.7165 52.9366 62.3097V51.3015C52.9366 50.8947 52.6889 50.5104 52.3174 50.307L41.8892 44.8142Z" fill="white"/>
<path fill-rule="evenodd" clip-rule="evenodd" d="M41.8892 44.8142C41.4929 44.6108 41.0222 44.6108 40.6259 44.8142L30.1977 50.307C29.8014 50.5104 29.5785 50.8947 29.5785 51.3015V62.3097C29.5785 62.7165 29.8262 63.1008 30.1977 63.3043L40.6259 68.797C41.0222 69.0005 41.4929 69.0005 41.8892 68.797L52.3174 63.3043C52.7137 63.1008 52.9366 62.7165 52.9366 62.3097V51.3015C52.9366 50.8947 52.6889 50.5104 52.3174 50.307L41.8892 44.8142Z" fill="url(#paint0_linear_5_354)"/>
<mask id="mask0_5_354" style="mask-type:luminance" maskUnits="userSpaceOnUse" x="29" y="44" width="24" height="25">
<path fill-rule="evenodd" clip-rule="evenodd" d="M41.8892 44.8142C41.4929 44.6108 41.0222 44.6108 40.6259 44.8142L30.1977 50.307C29.8014 50.5104 29.5785 50.8947 29.5785 51.3015V62.3097C29.5785 62.7165 29.8262 63.1008 30.1977 63.3043L40.6259 68.797C41.0222 69.0005 41.4929 69.0005 41.8892 68.797L52.3174 63.3043C52.7137 63.1008 52.9366 62.7165 52.9366 62.3097V51.3015C52.9366 50.8947 52.6889 50.5104 52.3174 50.307L41.8892 44.8142Z" fill="white"/>
</mask>
<g mask="url(#mask0_5_354)">
<path fill-rule="evenodd" clip-rule="evenodd" d="M52.3423 50.307L41.8646 44.8142C41.7655 44.769 41.6417 44.7238 41.5426 44.7012L29.8016 63.0556C29.9007 63.1686 30.0245 63.259 30.1484 63.3269L40.6261 68.8196C40.9233 68.9779 41.2701 69.0231 41.5921 68.9326L52.6148 50.533C52.5405 50.4426 52.4414 50.3748 52.3423 50.307Z" fill="url(#paint1_linear_5_354)"/>
</g>
<mask id="mask1_5_354" style="mask-type:luminance" maskUnits="userSpaceOnUse" x="29" y="44" width="24" height="25">
<path fill-rule="evenodd" clip-rule="evenodd" d="M41.8892 44.8142C41.4929 44.6108 41.0222 44.6108 40.6259 44.8142L30.1977 50.307C29.8014 50.5104 29.5785 50.8947 29.5785 51.3015V62.3097C29.5785 62.7165 29.8262 63.1008 30.1977 63.3043L40.6259 68.797C41.0222 69.0005 41.4929 69.0005 41.8892 68.797L52.3174 63.3043C52.7137 63.1008 52.9366 62.7165 52.9366 62.3097V51.3015C52.9366 50.8947 52.6889 50.5104 52.3174 50.307L41.8892 44.8142Z" fill="white"/>
</mask>
<g mask="url(#mask1_5_354)">
<path fill-rule="evenodd" clip-rule="evenodd" d="M52.367 63.3042C52.6642 63.146 52.8871 62.8747 52.9862 62.5809L41.4929 44.6785C41.1957 44.6333 40.8737 44.6559 40.6012 44.8142L30.1978 50.2843L41.4186 68.9552C41.5672 68.9326 41.7406 68.8874 41.8892 68.8196L52.367 63.3042Z" fill="url(#paint2_linear_5_354)"/>
<path fill-rule="evenodd" clip-rule="evenodd" d="M52.367 63.3043L41.914 68.7971C41.7654 68.8649 41.6167 68.9101 41.4434 68.9327L41.6415 69.2717L53.2339 63.1461V63.0104L52.9367 62.5583C52.8871 62.8748 52.6642 63.1461 52.367 63.3043Z" fill="url(#paint3_linear_5_354)"/>
<path fill-rule="evenodd" clip-rule="evenodd" d="M52.367 63.3043L41.914 68.7971C41.7654 68.8649 41.6167 68.9101 41.4434 68.9327L41.6415 69.2717L53.2339 63.1461V63.0104L52.9367 62.5583C52.8871 62.8748 52.6642 63.1461 52.367 63.3043Z" fill="url(#paint4_linear_5_354)"/>
</g>
</g>
<defs>
<linearGradient id="paint0_linear_5_354" x1="39.0052" y1="45.8214" x2="29.0885" y2="58.9725" gradientUnits="userSpaceOnUse">
<stop stop-color="#41873F"/>
<stop offset="0.3288" stop-color="#418B3D"/>
<stop offset="0.6352" stop-color="#419637"/>
<stop offset="0.9319" stop-color="#3FA92D"/>
<stop offset="1" stop-color="#3FAE2A"/>
</linearGradient>
<linearGradient id="paint1_linear_5_354" x1="45.8371" y1="71.8399" x2="72.8571" y2="60.011" gradientUnits="userSpaceOnUse">
<stop offset="0.1376" stop-color="#41873F"/>
<stop offset="0.4032" stop-color="#54A044"/>
<stop offset="0.7136" stop-color="#66B848"/>
<stop offset="0.9081" stop-color="#6CC04A"/>
</linearGradient>
<linearGradient id="paint2_linear_5_354" x1="29.1976" y1="69.6698" x2="53.3279" y2="69.6698" gradientUnits="userSpaceOnUse">
<stop offset="0.0919165" stop-color="#6CC04A"/>
<stop offset="0.2864" stop-color="#66B848"/>
<stop offset="0.5968" stop-color="#54A044"/>
<stop offset="0.8624" stop-color="#41873F"/>
</linearGradient>
<linearGradient id="paint3_linear_5_354" x1="29.1976" y1="72.8033" x2="53.3279" y2="72.8033" gradientUnits="userSpaceOnUse">
<stop offset="0.0919165" stop-color="#6CC04A"/>
<stop offset="0.2864" stop-color="#66B848"/>
<stop offset="0.5968" stop-color="#54A044"/>
<stop offset="0.8624" stop-color="#41873F"/>
</linearGradient>
<linearGradient id="paint4_linear_5_354" x1="26.7106" y1="46.739" x2="24.8144" y2="74.7077" gradientUnits="userSpaceOnUse">
<stop stop-color="#41873F"/>
<stop offset="0.3288" stop-color="#418B3D"/>
<stop offset="0.6352" stop-color="#419637"/>
<stop offset="0.9319" stop-color="#3FA92D"/>
<stop offset="1" stop-color="#3FAE2A"/>
</linearGradient>
<clipPath id="clip0_5_354">
<rect width="109.583" height="100" fill="white" transform="translate(0.795685)"/>
</clipPath>
</defs>
</svg>
