<svg width="43" height="55" viewBox="0 0 43 55" fill="none" xmlns="http://www.w3.org/2000/svg">
<path fill-rule="evenodd" clip-rule="evenodd" d="M7.16667 0H35.8333C37.7341 0 39.5569 0.724328 40.9009 2.01364C42.2449 3.30295 43 5.05164 43 6.875V48.125C43 49.9484 42.2449 51.697 40.9009 52.9864C39.5569 54.2757 37.7341 55 35.8333 55H7.16667C5.26595 55 3.44308 54.2757 2.09907 52.9864C0.755057 51.697 0 49.9484 0 48.125V6.875C0 5.05164 0.755057 3.30295 2.09907 2.01364C3.44308 0.724328 5.26595 0 7.16667 0ZM7.75792 40.1087C8.08042 40.7275 8.58208 41.2878 9.32742 41.5491C10.0692 41.8069 10.8038 41.6866 11.4058 41.4459C12.5452 40.9991 13.6812 39.9472 14.7239 38.7441C15.9172 37.3656 17.1713 35.5575 18.3825 33.5534C20.7205 32.8877 23.115 32.4207 25.5384 32.1578C26.6134 33.4744 27.7242 34.6087 28.7992 35.4234C29.8026 36.1797 30.96 36.8088 32.1461 36.8569C32.792 36.8866 33.4314 36.7207 33.9736 36.3825C34.529 36.0353 34.9411 35.5334 35.2421 34.9525C35.5646 34.3303 35.7617 33.6806 35.7366 33.0172C35.715 32.3629 35.4623 31.735 35.0199 31.2366C34.2101 30.3084 32.8842 29.8616 31.5799 29.6381C29.9976 29.4043 28.3923 29.3466 26.7962 29.4662C25.4491 27.6379 24.2739 25.6984 23.2845 23.6706C24.1803 21.4019 24.8504 19.2569 25.1478 17.5037C25.2768 16.7544 25.3449 16.0394 25.3198 15.3931C25.3151 14.7517 25.1596 14.1195 24.8647 13.5437C24.6948 13.226 24.4532 12.9486 24.1575 12.7316C23.8619 12.5146 23.5196 12.3634 23.1555 12.2891C22.4317 12.1413 21.6863 12.2891 21.0019 12.5538C19.651 13.0694 18.9379 14.1694 18.6692 15.3828C18.4076 16.5516 18.5258 17.9128 18.834 19.2878C19.1493 20.6834 19.6868 22.2028 20.3748 23.7394C19.2718 26.3638 18.0009 28.9205 16.5693 31.3947C14.723 31.953 12.943 32.6961 11.2588 33.6119C9.933 34.3681 8.75408 35.2619 8.04458 36.3172C7.29208 37.4378 7.05917 38.7716 7.75792 40.1087Z" fill="#FBEAEB"/>
</svg>
