<svg width="70" height="64" viewBox="0 0 70 64" fill="none" xmlns="http://www.w3.org/2000/svg">
<g clip-path="url(#clip0_5_387)">
<path d="M57.0701 22.1913C56.3597 21.9682 55.6234 21.757 54.8654 21.5573C54.99 21.0933 55.1044 20.6353 55.206 20.185C56.875 12.7922 55.7838 6.83649 52.0576 4.87561C48.4846 2.99539 42.6414 4.95582 36.74 9.64252C36.1725 10.0932 35.6034 10.5703 35.0346 11.0704C34.6556 10.7396 34.2771 10.4198 33.8997 10.114C27.7149 5.10267 21.5155 2.99083 17.793 4.95738C14.2235 6.84305 13.1664 12.442 14.6687 19.4482C14.8137 20.125 14.9833 20.8161 15.1751 21.5187C14.2977 21.746 13.4507 21.9883 12.6402 22.246C5.38914 24.553 0.75827 28.1686 0.75827 31.9189C0.75827 35.7923 5.72951 39.6773 13.2821 42.033C13.8781 42.2189 14.4965 42.3947 15.1339 42.5616C14.927 43.3215 14.7471 44.0662 14.596 44.7926C13.1636 51.6772 14.2822 57.1439 17.8422 59.0177C21.5194 60.9527 27.6907 58.9637 33.7 54.1702C34.175 53.7913 34.6517 53.3895 35.1292 52.9683C35.7481 53.5122 36.3661 54.0269 36.9807 54.5098C42.8015 59.0806 48.5504 60.9264 52.1071 59.0474C55.7806 57.1068 56.9744 51.2342 55.4245 44.0894C55.3061 43.5437 55.1684 42.9862 55.0136 42.4189C55.447 42.3019 55.8725 42.1812 56.2874 42.0557C64.139 39.6818 69.2475 35.844 69.2475 31.9189C69.2475 28.155 64.4673 24.5151 57.0701 22.1913ZM55.3672 39.5214C54.9927 39.6345 54.6084 39.7439 54.2168 39.8499C53.3501 37.3458 52.1802 34.683 50.7486 31.932C52.1148 29.2464 53.2394 26.6177 54.0819 24.1298C54.7825 24.3148 55.4625 24.51 56.1178 24.7159C62.4556 26.7069 66.3216 29.6507 66.3216 31.9189C66.3216 34.3351 62.1465 37.4715 55.3672 39.5214ZM52.5542 44.6079C53.2396 47.7673 53.3375 50.6237 52.8835 52.8567C52.4756 54.8632 51.6553 56.201 50.641 56.7367C48.4826 57.8768 43.8668 56.3949 38.8889 52.4858C38.3182 52.0377 37.7434 51.5592 37.1668 51.0528C39.0966 49.1267 41.0253 46.8876 42.9078 44.4009C46.2187 44.1328 49.3468 43.6944 52.1835 43.096C52.3232 43.6103 52.4473 44.1147 52.5542 44.6079ZM24.1078 56.5397C21.999 57.2193 20.3194 57.2388 19.3042 56.7046C17.1438 55.5675 16.2457 51.1783 17.4708 45.2905C17.6111 44.6163 17.7781 43.9236 17.9706 43.2156C20.7762 43.7818 23.8814 44.1892 27.2003 44.4347C29.0954 46.868 31.0798 49.1047 33.0796 51.0631C32.6427 51.4481 32.2075 51.8145 31.7747 52.1598C29.1174 54.2795 26.4546 55.7833 24.1078 56.5397ZM14.2283 39.5066C10.8887 38.465 8.13077 37.1112 6.24031 35.6339C4.54162 34.3063 3.68399 32.9884 3.68399 31.9189C3.68399 29.6431 7.40211 26.7403 13.6033 24.7673C14.3557 24.5279 15.1434 24.3023 15.9608 24.0903C16.8178 26.6344 17.9421 29.2942 19.2988 31.9839C17.9245 34.7135 16.7843 37.4158 15.9189 39.9896C15.3361 39.8368 14.7716 39.6759 14.2283 39.5066ZM17.54 18.9355C16.2529 12.9327 17.1077 8.40443 19.2588 7.26813C21.5501 6.05763 26.6168 7.78355 31.957 12.1106C32.2983 12.3872 32.641 12.6766 32.9847 12.9761C30.9947 14.926 29.0284 17.1458 27.1502 19.5648C23.9291 19.8373 20.8457 20.2749 18.0108 20.861C17.8326 20.2067 17.6747 19.5639 17.54 18.9355ZM47.0832 25.5925C46.4055 24.5243 45.7097 23.4814 45.0005 22.4669C47.1857 22.719 49.2794 23.0536 51.2455 23.4631C50.6553 25.1895 49.9195 26.9945 49.0535 28.8449C48.4322 27.7686 47.7751 26.6833 47.0832 25.5925ZM35.0355 14.8842C36.3851 16.2185 37.7366 17.7081 39.0659 19.3243C37.7263 19.2666 36.3702 19.2365 35.0029 19.2365C33.6485 19.2365 32.3023 19.2659 30.9711 19.3226C32.3017 17.7214 33.6649 16.2338 35.0355 14.8842ZM22.9108 25.611C22.2338 26.6822 21.5889 27.7616 20.9774 28.8429C20.1254 26.9989 19.3965 25.1857 18.8011 23.4349C20.7551 23.0358 22.839 22.7095 25.0103 22.4622C24.291 23.486 23.5896 24.5367 22.9108 25.6108V25.611ZM25.0728 41.5661C22.8294 41.3377 20.7143 41.0282 18.7607 40.6402C19.3656 38.8581 20.1106 37.0061 20.9807 35.1225C21.5938 36.203 22.2412 37.2828 22.9223 38.3564H22.9225C23.6162 39.4501 24.335 40.5214 25.0728 41.5661ZM35.1165 49.1419C33.7298 47.7765 32.3466 46.2662 30.9957 44.6416C32.3071 44.6886 33.6441 44.7126 35.0029 44.7126C36.3989 44.7126 37.7789 44.6839 39.1372 44.6287C37.8035 46.2825 36.4569 47.7952 35.1165 49.1419ZM49.0814 35.0265C49.9968 36.9305 50.7685 38.7728 51.3812 40.5245C49.3954 40.9379 47.2514 41.2709 44.9924 41.5183C45.7034 40.4901 46.4052 39.4293 47.0949 38.338C47.7926 37.234 48.455 36.1283 49.0814 35.0265ZM44.5605 37.0041C43.4899 38.6981 42.3907 40.3153 41.2749 41.8417C39.2425 41.9743 37.1429 42.0426 35.0029 42.0426C32.8715 42.0426 30.7983 41.9822 28.8019 41.8639C27.6411 40.3175 26.5181 38.6956 25.4543 37.0187H25.4545C24.3935 35.3464 23.417 33.66 22.5322 31.983C23.4168 30.3022 24.3907 28.6138 25.4456 26.9445L25.4454 26.9449C26.5031 25.2711 27.6162 23.6571 28.7663 22.1203C30.8032 21.9798 32.8919 21.9065 35.0028 21.9065H35.0029C37.1233 21.9065 39.2146 21.9804 41.2509 22.1221C42.3834 23.6477 43.489 25.2565 44.5509 26.9304C45.6248 28.6232 46.6113 30.3003 47.5034 31.9451C46.6139 33.6182 45.6296 35.3122 44.5605 37.0041ZM50.5961 7.1887C52.8896 8.39564 53.7815 13.2632 52.3405 19.6462C52.2486 20.0534 52.1451 20.4683 52.0327 20.8887C49.1912 20.2904 46.1057 19.8452 42.8752 19.5686C40.9933 17.123 39.0431 14.8997 37.0856 12.9749C37.6119 12.5129 38.1374 12.0723 38.6608 11.6566C43.7171 7.64104 48.443 6.05563 50.5961 7.1887ZM35.0029 26.3379C38.3805 26.3379 41.1187 28.8366 41.1187 31.9189C41.1187 35.0012 38.3805 37.5 35.0029 37.5C31.6252 37.5 28.887 35.0012 28.887 31.9189C28.887 28.8366 31.6252 26.3379 35.0029 26.3379Z" fill="#00D8FF"/>
</g>
<defs>
<clipPath id="clip0_5_387">
<rect width="68.4892" height="62.5" fill="white" transform="translate(0.75827 0.75)"/>
</clipPath>
</defs>
</svg>
