<svg width="69" height="64" viewBox="0 0 69 64" fill="none" xmlns="http://www.w3.org/2000/svg">
<path d="M34.5669 13.2012C25.435 13.2012 19.7275 17.3678 17.4446 25.7012C20.869 21.5345 24.8642 19.972 29.4302 21.0137C32.0353 21.608 33.8973 23.3327 35.9583 25.2418C39.3158 28.3517 43.2017 31.9512 51.6892 31.9512C60.8211 31.9512 66.5285 27.7845 68.8115 19.4512C65.387 23.6178 61.3918 25.1803 56.8259 24.1387C54.2207 23.5443 52.3587 21.8197 50.2977 19.9105C46.9402 16.8006 43.0543 13.2012 34.5669 13.2012ZM17.4446 31.9512C8.31267 31.9512 2.60524 36.1178 0.322266 44.4512C3.74673 40.2845 7.74193 38.722 12.3079 39.7637C14.913 40.358 16.775 42.0827 18.836 43.9918C22.1935 47.1017 26.0794 50.7012 34.5669 50.7012C43.6988 50.7012 49.4062 46.5345 51.6892 38.2012C48.2647 42.3678 44.2695 43.9303 39.7036 42.8887C37.0984 42.2943 35.2364 40.5697 33.1754 38.6605C29.8179 35.5506 25.932 31.9512 17.4446 31.9512Z" fill="url(#paint0_linear_5_125)"/>
<defs>
<linearGradient id="paint0_linear_5_125" x1="-1.58021" y1="25.2012" x2="54.7489" y2="60.7915" gradientUnits="userSpaceOnUse">
<stop stop-color="#2298BD"/>
<stop offset="1" stop-color="#0ED7B5"/>
</linearGradient>
</defs>
</svg>
