<svg width="80" height="51" viewBox="0 0 80 51" fill="none" xmlns="http://www.w3.org/2000/svg">
<path d="M40.2575 0.613281H40.7025C44.8128 0.62653 65.6391 0.759015 71.2545 2.09269C72.952 2.49972 74.4989 3.2931 75.7405 4.39354C76.9822 5.49398 77.875 6.86295 78.3299 8.36363C78.8349 10.0418 79.19 12.2631 79.43 14.5551L79.48 15.0144L79.59 16.1625L79.63 16.6218C79.955 20.6582 79.995 24.4384 80 25.2642V25.5954C79.995 26.4522 79.95 30.4885 79.59 34.6927L79.55 35.1564L79.505 35.6157C79.255 38.1417 78.8849 40.6501 78.3299 42.4961C77.875 43.9967 76.9822 45.3657 75.7405 46.4661C74.4989 47.5666 72.952 48.36 71.2545 48.767C65.4541 50.1448 43.4077 50.242 40.3525 50.2464H39.6425C38.0974 50.2464 31.707 50.2199 25.0066 50.0168L24.1565 49.9903L23.7215 49.9726L22.8664 49.9417L22.0114 49.9108C16.461 49.6944 11.1757 49.3455 8.74055 48.7626C7.04358 48.3559 5.49709 47.5632 4.25552 46.4636C3.01395 45.364 2.12075 43.9959 1.6651 42.4961C1.11007 40.6545 0.740046 38.1417 0.490031 35.6157L0.450028 35.152L0.410026 34.6927C0.161827 31.7004 0.0250782 28.7017 0 25.7014L0 25.1582C0.0100006 24.2088 0.0500031 20.9276 0.32002 17.3063L0.355022 16.8515L0.370023 16.6218L0.410026 16.1625L0.520033 15.0144L0.570036 14.5551C0.810051 12.2631 1.16507 10.0373 1.6701 8.36363C2.12498 6.86295 3.01785 5.49398 4.25947 4.39354C5.50109 3.2931 7.04798 2.49972 8.74555 2.09269C11.1807 1.51859 16.466 1.1653 22.0164 0.944492L22.8664 0.913579L23.7265 0.887083L24.1565 0.873835L25.0116 0.842922C29.7704 0.707803 34.5312 0.63272 39.2925 0.617698L40.2575 0.613281ZM32.002 14.7891V36.0661L52.7883 25.432L32.002 14.7891Z" fill="#FBEAEB"/>
</svg>
