<svg width="80" height="50" viewBox="0 0 80 50" fill="none" xmlns="http://www.w3.org/2000/svg">
<path d="M40.2575 0H40.7025C44.8128 0.0132485 65.6391 0.145734 71.2545 1.47941C72.952 1.88644 74.4989 2.67982 75.7405 3.78026C76.9822 4.8807 77.875 6.24967 78.3299 7.75035C78.8349 9.42848 79.19 11.6498 79.43 13.9418L79.48 14.4011L79.59 15.5493L79.63 16.0085C79.955 20.0449 79.995 23.8251 80 24.651V24.9822C79.995 25.8389 79.95 29.8753 79.59 34.0794L79.55 34.5431L79.505 35.0024C79.255 37.5285 78.8849 40.0368 78.3299 41.8828C77.875 43.3835 76.9822 44.7524 75.7405 45.8529C74.4989 46.9533 72.952 47.7467 71.2545 48.1537C65.4541 49.5316 43.4077 49.6287 40.3525 49.6331H39.6425C38.0974 49.6331 31.707 49.6066 25.0066 49.4035L24.1565 49.377L23.7215 49.3593L22.8664 49.3284L22.0114 49.2975C16.461 49.0811 11.1757 48.7322 8.74055 48.1493C7.04358 47.7427 5.49709 46.9499 4.25552 45.8503C3.01395 44.7507 2.12075 43.3826 1.6651 41.8828C1.11007 40.0412 0.740046 37.5285 0.490031 35.0024L0.450028 34.5387L0.410026 34.0794C0.161827 31.0871 0.0250782 28.0884 0 25.0882L0 24.545C0.0100006 23.5955 0.0500031 20.3143 0.32002 16.6931L0.355022 16.2382L0.370023 16.0085L0.410026 15.5493L0.520033 14.4011L0.570036 13.9418C0.810051 11.6498 1.16507 9.42407 1.6701 7.75035C2.12498 6.24967 3.01785 4.8807 4.25947 3.78026C5.50109 2.67982 7.04798 1.88644 8.74555 1.47941C11.1807 0.905312 16.466 0.552019 22.0164 0.331211L22.8664 0.300298L23.7265 0.273802L24.1565 0.260554L25.0116 0.229641C29.7704 0.0945216 34.5312 0.0194388 39.2925 0.00441636L40.2575 0ZM32.002 14.1758V35.4529L52.7883 24.8188L32.002 14.1758Z" fill="#2E3C7E"/>
</svg>
